<svg version="1.2" xmlns="http://www.w3.org/2000/svg" viewBox="0 0 1007 375" width="859" height="320">
	<title>2_Монтажная область 1 копия 4-ai</title>
	<defs>
		<linearGradient id="g1" x1="-84.3" y1="-74.3" x2="422.8" y2="82.3" gradientUnits="userSpaceOnUse">
			<stop offset="0" stop-color="#f6eb7a"/>
			<stop offset=".2" stop-color="#de8531"/>
			<stop offset=".3" stop-color="#ffc551"/>
			<stop offset=".4" stop-color="#df842e"/>
			<stop offset=".5" stop-color="#ffc357"/>
			<stop offset=".6" stop-color="#fff6c3"/>
			<stop offset=".8" stop-color="#ffbd47"/>
			<stop offset=".9" stop-color="#faec7c"/>
			<stop offset="1" stop-color="#fcf5c3"/>
		</linearGradient>
		<linearGradient id="g2" x1="-100.7" y1="-21.2" x2="406.4" y2="135.3" gradientUnits="userSpaceOnUse">
			<stop offset="0" stop-color="#f6eb7a"/>
			<stop offset=".2" stop-color="#de8531"/>
			<stop offset=".3" stop-color="#ffc551"/>
			<stop offset=".4" stop-color="#df842e"/>
			<stop offset=".5" stop-color="#ffc357"/>
			<stop offset=".6" stop-color="#fff6c3"/>
			<stop offset=".8" stop-color="#ffbd47"/>
			<stop offset=".9" stop-color="#faec7c"/>
			<stop offset="1" stop-color="#fcf5c3"/>
		</linearGradient>
	</defs>
	<style>
		.s0 { fill: #1a1a1a } 
		.s1 { fill: url(#g1) } 
		.s2 { fill: url(#g2) } 
	</style>
	<g id="Слой 1">
		<g id="&lt;Group&gt;">
			<path id="&lt;Compound Path&gt;" class="s0" d="m352.3 307.6l5.7 0.1-9.2 42.9h-6.5l-14.5-34.7-7.5 34.7h-5.6l9.1-42.9h6.9l14.1 34.7z"/>
			<path id="&lt;Compound Path&gt;" class="s0" d="m368.4 331.2l-4.1 19.4h-5.8l9.2-42.9h29.7l-1.1 5.1h-24l-2.7 13.2h21l-1.1 5.2z"/>
			<path id="&lt;Compound Path&gt;" class="s0" d="m398.8 312.8l1.1-5.1h34.9l-1.1 5.1h-14.6l-8 37.8h-5.8l8-37.8z"/>
			<path id="&lt;Compound Path&gt; copy" class="s0" d="m280.8 312.8l1.1-5.1h34.9l-1.1 5.1h-14.6l-8 37.8h-5.8l8-37.8z"/>
			<path id="&lt;Compound Path&gt;" fill-rule="evenodd" class="s0" d="m462.7 318.4q5.8 0 8.9 3.7 2.7 3.2 2.7 8.5 0 2.1-0.5 4.3-1.5 6.7-5.9 11.4-5.1 5.2-12.2 5.2-5.8 0-8.8-3.6-2.7-3.3-2.7-8.5 0-2.1 0.5-4.5 1.4-6.7 5.9-11.3 5-5.2 12.1-5.2zm-6 28.5q5 0 8.3-4.4 2.4-3.1 3.3-7.6 0.2-0.8 0.3-1.7 0.2-1 0.2-2 0-3.6-1.4-5.6-1.8-2.6-5.6-2.6-5 0-8.3 4.3-2.4 3.3-3.4 7.6-0.4 2-0.4 3.9 0 3.5 1.4 5.5 1.7 2.6 5.6 2.6z"/>
			<path id="&lt;Compound Path&gt;" class="s0" d="m494.2 323.7l-5.8 26.9h-5.2l5.7-26.9h-10l0.9-4.4h25.3l-0.9 4.4z"/>
			<path id="&lt;Compound Path&gt;" class="s0" d="m534.1 332.4q3.1 0 5.2-1.2 2.1-1.1 2.5-3.5 0.2-0.8 0.2-1.4 0-2-1.5-2.8-1.5-0.7-4-0.7-3.5 0-5.7 1.4-2.2 1.3-2.8 4.3h-5q0.8-3.5 3.3-5.9 4.1-4 11.6-4 4.7 0 7.1 2 2.5 2.1 2.5 5 0 0.9-0.1 1.4-0.8 3.6-3.3 5.4-1.5 1-4.2 1.5 2.7 0.4 4.2 1.6 1.9 1.5 1.9 4.2 0 0.8-0.2 1.8-1 4.7-5.4 7.5-4 2.5-9.5 2.5-6.5 0-9.4-3-2-2.1-2-5.5 0-0.5 0.1-1.1 0-0.5 0.2-1.4h5q-0.1 0.4-0.2 1-0.1 0.6-0.1 1 0 2.5 1.9 3.6 1.8 1.1 5.3 1.1 3.3 0 5.4-1.1 2.5-1.4 3.2-4.5 0.2-0.9 0.2-1.5 0-2.4-2.3-3.3-1.6-0.7-5.2-0.7h-4l0.9-3.7z"/>
			<path id="&lt;Compound Path&gt;" fill-rule="evenodd" class="s0" d="m556.4 319.3h15.4q4.1 0 6.1 1.7 1.7 1.5 1.7 4.2 0 0.5-0.1 1.1-0.1 0.6-0.1 0.9-0.5 2-1.8 3.6-1.8 2.2-4.9 3.3 2.5 0.7 3.6 1.5 2.1 1.5 2.1 4.1 0 0.8-0.2 1.7-0.9 4.1-3.9 6.5-3.5 2.7-9.5 2.7h-15.1zm-0.4 27h9.5q3.6 0 5.2-1.2 1.7-1.1 2.3-3.8 0.1-0.7 0.1-1.3 0-1.8-1.5-2.5-1.5-0.8-5-0.8h-8.5zm2.9-13.8h7.7q3.4 0 5.1-1 1.7-1.1 2.3-4 0.1-0.8 0.1-1.1 0-1.4-1.2-2.1-1.3-0.6-4.4-0.6h-7.7z"/>
			<path id="&lt;Compound Path&gt;" fill-rule="evenodd" class="s0" d="m611.3 340.8q-0.6 1.7-2.2 3.8-2.3 3-5.3 4.8-1.6 0.9-3.1 1.4-2.4 0.7-5.8 0.7-5.4 0-8.2-3-2.9-3.1-2.9-8.2 0-1.8 0.1-2.4 0.1-0.7 0.4-2.1 1.6-7.6 6.2-12.3 5-5.1 12.4-5.1 5.2 0 7.9 3 2.6 3.1 2.6 8.6 0 2.8-0.8 6.7h-22.9q-0.4 1.7-0.4 3.4 0 6.9 7.3 6.9 3.3 0 6.3-2.2 2.5-2 3.1-4zm-3.3-8.3q0.1-0.7 0.2-1.3 0-0.6 0-1.3 0-3.1-1.5-4.8-1.7-1.9-5.4-1.9-3.6 0-6.7 2.7-3.2 2.8-4 6.6z"/>
			<path id="&lt;Compound Path&gt;" class="s0" d="m630.3 332.4q3.1 0 5.2-1.2 2.1-1.1 2.6-3.5 0.2-0.8 0.2-1.4 0-2-1.5-2.8-1.5-0.7-4-0.7-3.6 0-5.7 1.4-2.2 1.3-2.9 4.3h-4.9q0.7-3.5 3.3-5.9 4-4 11.6-4 4.6 0 7.1 2 2.5 2.1 2.5 5 0 0.9-0.2 1.4-0.7 3.6-3.2 5.4-1.5 1-4.2 1.5 2.7 0.4 4.2 1.6 1.8 1.5 1.8 4.2 0 0.8-0.2 1.8-1 4.7-5.4 7.5-4 2.5-9.5 2.5-6.5 0-9.3-3-2-2.1-2-5.5 0-0.5 0-1.1 0.1-0.5 0.2-1.4h5q-0.1 0.4-0.2 1 0 0.6 0 1 0 2.5 1.8 3.6 1.8 1.1 5.3 1.1 3.4 0 5.4-1.1 2.6-1.4 3.2-4.5 0.2-0.9 0.2-1.5 0-2.4-2.3-3.3-1.6-0.7-5.2-0.7h-3.9l0.8-3.7z"/>
			<path id="&lt;Compound Path&gt;" fill-rule="evenodd" class="s0" d="m646.6 350.6l-1.7 8.1-4.7-0.1 2.7-12.3h2.1q0.8-0.4 1.8-2.1 1.3-2 1.7-3.9l4.4-21h22.4l-5.7 27h2.8l-2.6 12.3-4.6 0.1 1.6-8.1zm17.8-4.3l4.7-22.6h-12.1l-3.5 16.6q-0.6 2.3-1.6 4-0.8 1.1-1.8 2z"/>
		</g>
		<g id="&lt;Group&gt;">
			<path id="&lt;Path&gt;" class="s0" d="m867.5 290.7h-745v-12.7h745z"/>
		</g>
		<g id="&lt;Group&gt;">
			<g id="&lt;Group&gt;">
				<g id="&lt;Group&gt;">
					<path id="&lt;Compound Path&gt;" class="s0" d="m385.1 134.8h-61.3l-17.1 97.6h-31.4l17.2-97.6h-42.8l4.8-27.1h135.4z"/>
				</g>
				<g id="&lt;Group&gt;">
					<path id="&lt;Compound Path&gt;" class="s0" d="m481.6 107.7l-21.9 124.7h-31.3l-21.8-68.2-11.8 68.2h-31.3l22-124.7h32.2l21.4 63.8 11.3-63.8z"/>
				</g>
				<g id="&lt;Group&gt;">
					<path id="&lt;Compound Path&gt;" fill-rule="evenodd" class="s0" d="m785.1 107.7q19.7 0.1 28 8.7 6.2 6.6 6.2 16.6 0 3.5-0.6 7.3l-2.5 13.5q-2.1 11.3-7.2 18.2-5.1 6.9-11.3 9.9l15.8 50.5h-35l-14.6-46.5h-10.7l-7.1 46.5h-33.3l22-124.7zm-10.9 27.1h-13l-4.5 30.1h12.2q9.1 0 13.1-4.4 4-4.4 4-11.7 0-14-11.8-14z"/>
				</g>
				<g id="&lt;Group&gt;">
					<path id="&lt;Path&gt;" class="s0" d="m701.2 134.8h-243.6v-27.1h248.4z"/>
				</g>
				<g id="&lt;Group&gt;">
					<path id="&lt;Path&gt;" class="s0" d="m943.7 107.7l-14 79.9q-4.4 24.2-18.1 35.7-13.8 11.6-38.9 11.6-25.1 0-34.8-11.6-7-8-7-22 0-6.3 1.4-13.7l14.1-79.9h31.1l-14 79.2q0 0.3-0.1 0.7h34.9q0.1-0.4 0.2-0.7l14-79.2z"/>
				</g>
				<g id="&lt;Group&gt;">
					<g id="&lt;Group&gt;">
						<path id="&lt;Path&gt;" class="s0" d="m643.3 152.8l-13.6 79.6h-31.4l13.6-79.6z"/>
					</g>
				</g>
				<g id="&lt;Group&gt;">
					<g id="&lt;Group&gt;">
						<path id="&lt;Path&gt;" class="s0" d="m575.3 152.8l-5.8 33.9h-46l-8 45.7h-31.3l13.9-79.6z"/>
					</g>
				</g>
			</g>
			<g id="&lt;Group&gt;">
				<path id="&lt;Path&gt;" class="s0" d="m699.8 202.3l-5.4 31.3h-31.3l5.4-31.3z"/>
			</g>
		</g>
		<g id="&lt;Group&gt;">
			<path id="&lt;Path&gt;" class="s1" d="m159.7 80.7l31.6-67.8 13 67.8z"/>
			<path id="&lt;Path&gt;" class="s2" d="m220.6 166.3l18.2 94.9-73.5-58.6-89.6 58.6 44.1-94.9-73.5-58.6h263.9z"/>
		</g>
	</g>
</svg>